<svg width="169" height="66" viewBox="0 0 169 66" fill="none" xmlns="http://www.w3.org/2000/svg">
<path d="M-2.47955e-05 18.7796V46.2141C-2.47955e-05 47.7025 0.788542 49.0795 2.07227 49.8327L25.8639 63.7926C26.7962 64.3396 27.9702 63.6673 27.9702 62.5864V58.99C27.9702 57.4852 27.1643 56.0957 25.8583 55.3484L8.76135 45.5659C7.68046 44.9475 7.01356 43.7975 7.01356 42.5522C7.01356 41.6591 7.98236 41.1025 8.75394 41.5524L18.7666 47.3906C19.699 47.9342 20.8696 47.2617 20.8696 46.1825V42.762C20.8696 41.2491 20.055 39.8533 18.7378 39.1091L8.78098 33.484C7.68889 32.8671 7.01356 31.7099 7.01356 30.4556C7.01356 29.564 7.97787 29.006 8.75084 29.4504L25.8747 39.2938C26.807 39.8298 27.9702 39.1568 27.9702 38.0814V34.8942C27.9702 33.3937 27.1688 32.0074 25.8685 31.2586L2.09644 17.5677C1.1641 17.0307 -2.47955e-05 17.7037 -2.47955e-05 18.7796Z" fill="white"/>
<path d="M57.4982 17.3618L33.7174 31.0916C32.4296 31.8351 31.6316 33.2047 31.6198 34.6917L31.4004 62.2491C31.3918 63.3305 32.5615 64.0121 33.4981 63.4713L36.6183 61.6699C37.9203 60.9182 38.7205 59.5274 38.7161 58.024L38.6578 38.3494C38.6541 37.1006 39.3189 35.9451 40.4004 35.3207C41.175 34.8735 42.1431 35.4325 42.1431 36.3268L42.1431 47.9126C42.1431 48.9891 43.3085 49.662 44.2409 49.1237L47.2085 47.4103C48.5244 46.6506 49.3267 45.2387 49.3059 43.7194L49.1497 32.3207C49.1325 31.0639 49.7961 29.8961 50.8846 29.2676C51.6554 28.8226 52.619 29.3783 52.6199 30.2684L52.6388 49.9995C52.6398 51.0755 53.8047 51.7473 54.7365 51.2093L57.5021 49.6126C58.8004 48.8631 59.6001 47.4777 59.5999 45.9786L59.5959 18.5727C59.5958 17.4963 58.4304 16.8236 57.4982 17.3618Z" fill="#35B7FE"/>
<path d="M12.2211 7.37083C12.5617 7.18986 12.9716 7.19714 13.3056 7.3901L38.7818 22.1075C39.5439 22.5478 39.5227 23.655 38.7443 24.0658L37.1079 24.9294C36.7631 25.1114 36.3485 25.1008 36.0135 24.9014L10.9371 9.97724C10.1876 9.53115 10.2141 8.43698 10.9844 8.02777L12.2211 7.37083Z" fill="white"/>
<path d="M22.8793 1.35316C23.2199 1.17219 23.6298 1.17947 23.9638 1.37243L49.44 16.0899C50.2021 16.5301 50.1809 17.6373 49.4025 18.0481L47.7661 18.9118C47.4213 19.0937 47.0067 19.0831 46.6717 18.8837L21.5953 3.95957C20.8458 3.51348 20.8723 2.41931 21.6426 2.0101L22.8793 1.35316Z" fill="white"/>
<path d="M39.7436 2.04191C39.4034 1.86173 38.9945 1.86909 38.661 2.0614L12.7219 17.0198C11.9586 17.4599 11.9801 18.5687 12.7598 18.9791L14.3945 19.8393C14.7387 20.0204 15.1523 20.0098 15.4868 19.8112L41.0253 4.64628C41.7763 4.20037 41.7495 3.1044 40.9778 2.69561L39.7436 2.04191Z" fill="white"/>
<path d="M47.7025 7.34566C47.3638 7.16275 46.9548 7.16682 46.6198 7.35645L20.5614 22.1061C19.7946 22.5401 19.8071 23.649 20.5835 24.0656L22.2113 24.9389C22.5541 25.1228 22.9677 25.1155 23.3037 24.9196L48.9632 9.96023C49.7177 9.52036 49.6998 8.42421 48.9314 8.00924L47.7025 7.34566Z" fill="white"/>
<path d="M84.2434 10.2999V12.0308H77.5178V16.9266H84.0456V18.6575H77.5178V25.0616H84.2434V26.7924H75.6881V10.2999H84.2434ZM98.6446 26.7924L96.716 22.1439H89.6937L87.7156 26.7924H85.688L93.279 9.5087L100.672 26.7924H98.6446ZM90.4107 20.413H95.9989L93.2295 13.8111L90.4107 20.413ZM102.998 10.2999H105.644C106.757 10.2999 108.413 10.3741 109.65 11.2148C110.614 11.8577 111.455 13.1188 111.455 14.8743C111.455 17.3964 109.798 19.2509 107.301 19.424L112.543 26.7924H110.317L105.298 19.5723H104.828V26.7924H102.998V10.2999ZM104.828 12.0308V17.9404H105.99C108.265 17.9404 109.625 16.8524 109.625 14.9238C109.625 14.0089 109.353 13.094 108.314 12.5006C107.573 12.0802 106.732 12.0308 105.941 12.0308H104.828ZM117.239 26.7924H115.41V9.6076L128.267 23.0835V10.2999H130.097V27.5342L117.239 14.0584V26.7924ZM142.896 10.2999V12.0308H136.171V16.9266H142.698V18.6575H136.171V25.0616H142.896V26.7924H134.341V10.2999H142.896ZM155.097 12.5995L153.638 13.5638C153.415 13.1188 153.044 12.6242 152.674 12.3275C152.352 12.0802 151.759 11.7588 150.819 11.7588C149.187 11.7588 148.05 12.7726 148.05 14.3056C148.05 14.9485 148.223 15.3194 148.668 15.7398C149.162 16.2343 149.781 16.5063 150.399 16.7783L151.981 17.4706C152.946 17.8909 153.836 18.336 154.528 19.0284C155.369 19.8691 155.715 20.8334 155.715 22.0203C155.715 25.0616 153.465 27.0892 150.498 27.0892C149.41 27.0892 148.05 26.8666 146.912 25.7539C146.096 24.9627 145.602 23.8253 145.379 22.8362L147.16 22.3417C147.283 23.2071 147.679 23.9489 148.149 24.4434C148.866 25.1605 149.682 25.3583 150.522 25.3583C152.772 25.3583 153.836 23.7511 153.836 22.0944C153.836 21.3526 153.613 20.7098 153.02 20.1658C152.55 19.7207 151.907 19.424 151.042 19.0284L149.558 18.336C148.915 18.0393 148.099 17.6931 147.357 16.9761C146.64 16.2837 146.22 15.5172 146.22 14.2809C146.22 11.7341 148.173 10.028 150.844 10.028C151.858 10.028 152.674 10.2258 153.49 10.7697C154.157 11.2148 154.726 11.8824 155.097 12.5995ZM166.09 12.0308H162.084V26.7924H160.254V12.0308H156.249V10.2999H166.09V12.0308ZM79.3348 52.7924H74.7987L77.9504 33.1459H81.7207L86.6102 44.8985L91.4998 33.1459H95.27L98.4217 52.7924H93.8856L92.3245 41.0693L87.4055 52.7924H85.8149L80.8959 41.0693L79.3348 52.7924ZM101.89 33.1459H106.426V52.7924H101.89V33.1459ZM115.341 52.7924H110.805V33.1459H114.752L125.415 45.8116V33.1459H129.951V52.7924H126.004L115.341 40.0679V52.7924ZM134.248 33.1459H140.463C143.055 33.1459 145.794 33.5288 148.21 35.8558C149.948 37.5347 151.037 39.8322 151.037 42.8955C151.037 45.9883 149.977 48.2269 148.357 49.8469C145.647 52.5863 142.26 52.7924 140.61 52.7924H134.248V33.1459ZM138.784 36.9751V48.9633H139.992C140.934 48.9633 142.996 48.8749 144.469 47.6378C145.529 46.7542 146.384 45.0752 146.384 42.8955C146.384 40.7748 145.529 39.4198 144.764 38.654C143.291 37.1813 141.376 36.9751 139.992 36.9751H138.784ZM166.577 34.6481L164.545 37.9471C163.072 36.6216 161.805 36.5332 161.246 36.5332C160.627 36.5332 159.861 36.6216 159.331 37.2107C159.037 37.5053 158.83 37.9471 158.83 38.4478C158.83 38.9191 158.978 39.2726 159.272 39.5377C159.744 39.9795 160.421 40.1562 161.746 40.657L163.219 41.2166C164.073 41.5406 165.134 41.9824 165.9 42.7188C167.048 43.8086 167.343 45.2225 167.343 46.3712C167.343 48.4036 166.636 50.1709 165.605 51.2313C163.867 53.0575 161.334 53.2343 160.038 53.2343C158.624 53.2343 157.387 53.0281 156.15 52.4095C155.149 51.9088 154 50.9957 153.263 50.2593L155.62 47.0193C156.121 47.52 156.916 48.1975 157.446 48.5215C158.212 48.9927 159.007 49.2284 159.92 49.2284C160.509 49.2284 161.334 49.1106 161.982 48.5509C162.365 48.2269 162.689 47.6967 162.689 46.9603C162.689 46.3123 162.424 45.9 162.012 45.5465C161.481 45.1047 160.274 44.6628 159.714 44.4567L158.094 43.897C157.181 43.573 156.121 43.1606 155.355 42.3359C154.324 41.2461 154.177 39.8617 154.177 38.9191C154.177 37.1813 154.707 35.7085 155.885 34.5008C157.269 33.087 158.919 32.7041 160.745 32.7041C162.1 32.7041 164.28 32.9397 166.577 34.6481Z" fill="white"/>
</svg>
